<svg xmlns="http://www.w3.org/2000/svg" viewBox="0 0 900 700"><defs><pattern id="p" width="24" height="24" patternUnits="userSpaceOnUse"><path d="M0 0l24 24M24 0L0 24" stroke="#7be1f7" stroke-opacity=".18" stroke-width="3"/></pattern></defs><rect width="900" height="700" rx="36" fill="#0c1d24"/><g transform="translate(135 85)"><rect x="0" y="0" width="630" height="92" rx="18" fill="url(#p)" stroke="#59c7e8" stroke-width="3"/><text x="30" y="56" font-family="Arial" font-size="24" font-weight="700" fill="#fff">T700 RAW CARBON SURFACE</text><rect x="18" y="132" width="594" height="82" rx="18" fill="#172e37"/><text x="46" y="183" font-family="Arial" font-size="22" font-weight="700" fill="#fff">FIBERGLASS REINFORCEMENT</text><rect x="40" y="252" width="550" height="160" rx="18" fill="#1f3a44" stroke="#82dff5" stroke-opacity=".5"/><g fill="none" stroke="#8edff2" stroke-opacity=".45"><path d="M60 282h510M60 322h510M60 362h510"/><path d="M90 265v132M150 265v132M210 265v132M270 265v132M330 265v132M390 265v132M450 265v132M510 265v132"/></g><text x="315" y="342" text-anchor="middle" font-family="Arial" font-size="24" font-weight="700" fill="#fff">POLYMER HONEYCOMB CORE</text><rect x="70" y="450" width="490" height="76" rx="18" fill="#59c7e8" opacity=".25" stroke="#59c7e8"/><text x="315" y="498" text-anchor="middle" font-family="Arial" font-size="22" font-weight="700" fill="#d9f8ff">FOAM-INJECTED EDGE WALL</text></g></svg>